<svg xmlns="http://www.w3.org/2000/svg" viewBox="0 0 320 88" fill="none" role="img" aria-label="Blackstone Excavations">
  <defs>
    <filter id="stone-texture" x="-10%" y="-10%" width="120%" height="120%">
      <feTurbulence type="fractalNoise" baseFrequency="0.85" numOctaves="3" seed="8" result="noise"/>
      <feDisplacementMap in="SourceGraphic" in2="noise" scale="1.2" xChannelSelector="R" yChannelSelector="G"/>
    </filter>
  </defs>
  <!-- Gold excavator icon above the O -->
  <g transform="translate(168, 2)" fill="#D97706">
    <path d="M8 14 L14 14 L16 10 L22 10 L24 8 L30 8 L32 10 L38 10 L40 14 L46 14 L44 16 L38 16 L36 18 L24 18 L22 16 L16 16 Z"/>
    <rect x="12" y="18" width="10" height="5" rx="0.5"/>
    <path d="M30 8 L34 4 L36 4 L38 8" stroke="#D97706" stroke-width="1.2" fill="none"/>
    <circle cx="18" cy="24" r="2.5"/>
    <circle cx="28" cy="24" r="2.5"/>
    <circle cx="38" cy="24" r="2.5"/>
  </g>
  <text
    x="160"
    y="52"
    text-anchor="middle"
    fill="#FFFFFF"
    font-family="Georgia, 'Times New Roman', serif"
    font-size="34"
    font-weight="700"
    letter-spacing="0.12em"
    filter="url(#stone-texture)"
  >BLACKSTONE</text>
  <text
    x="160"
    y="78"
    text-anchor="middle"
    fill="#FFFFFF"
    font-family="Arial, Helvetica, sans-serif"
    font-size="11"
    font-weight="400"
    letter-spacing="0.55em"
  >EXCAVATIONS</text>
</svg>
